<svg width="187" height="27" viewBox="0 0 187 27" fill="none" xmlns="http://www.w3.org/2000/svg">
<path fill-rule="evenodd" clip-rule="evenodd" d="M134.571 0.407714C134.49 0.409083 134.409 0.411447 134.328 0.414683L131.814 0.47492C131.895 5.61496 131.876 10.7777 131.856 15.9378C131.843 19.4154 131.83 22.8917 131.848 26.3592C132.307 26.3648 132.793 26.3666 133.289 26.3684C134.543 26.373 135.865 26.3779 137.005 26.4452C137.018 25.4995 137.02 24.5374 137.023 23.5719C137.028 21.8395 137.033 20.0958 137.097 18.4148C137.672 18.4168 138.262 18.4098 138.858 18.4028C140.389 18.3847 141.96 18.3662 143.425 18.4972C143.973 18.5462 144.33 19.0193 144.643 19.435C144.686 19.4919 144.728 19.5478 144.77 19.6014C145.205 20.2234 145.663 20.9969 146.144 21.8085C147.138 23.4857 148.228 25.3258 149.408 26.3287C151.128 26.4643 152.857 26.4835 154.581 26.3859C153.996 25.318 153.349 24.3489 152.695 23.3675C152.387 22.907 152.078 22.4437 151.773 21.9662C151.574 21.6556 151.385 21.3546 151.199 21.06C150.505 19.9573 149.866 18.9431 149.01 17.8438C149.438 17.4065 149.901 17.0215 150.365 16.6359C150.675 16.378 150.986 16.1198 151.286 15.8455C153.277 14.0303 154.244 11.8348 154.211 9.14399C154.178 6.60631 153.068 4.58761 151.27 2.83812C150.437 2.02703 149.485 1.34139 148.37 0.976359C146.076 0.224155 139.434 0.331079 135.802 0.389552C135.337 0.397032 134.922 0.403719 134.571 0.407714ZM145.862 5.0564H137.005V14.0564H145.862C146.911 13.7231 149.18 12.509 149.18 9.14399C149.18 5.77903 146.911 4.91893 145.862 5.0564Z" fill="black"/>
<path d="M10.0107 0.0337319C13.6665 -0.104291 17.0868 0.0812737 19.9677 2.52972C19.3951 3.99023 19.0248 4.83579 17.8949 5.91496C15.7553 4.73448 13.334 4.64475 11.0117 4.45085C6.24792 4.05296 2.2608 7.92146 8.6941 10.1765C12.4011 11.476 16.3598 11.4417 19.285 14.3568C21.8002 16.8633 21.4295 21.6807 18.9257 24.0806C16.0024 26.8807 12.4492 26.6564 8.74739 26.6122C8.31238 26.5911 7.87763 26.5621 7.44362 26.5251C4.71233 26.2782 1.80214 25.2764 0 23.1173C0.431642 21.9069 0.903996 20.7676 1.3944 19.5796C4.46421 21.2349 7.34452 22.5115 10.9431 22.4083C12.84 22.3538 16.2035 21.3241 15.9325 18.9046C15.6152 16.0719 10.295 15.939 8.1402 15.143C6.19812 14.4256 4.28069 14.0007 2.6343 12.5987C1.33003 11.4905 0.52066 9.90917 0.384705 8.20348C0.305772 7.15518 0.469738 6.44751 0.810371 5.47027C2.26939 1.28341 6.03254 0.325958 10.0107 0.0337319Z" fill="black"/>
<path d="M95.7629 0.337524C97.3801 0.350841 99.2265 0.324831 100.819 0.462979C100.221 2.10955 99.6199 3.32039 98.843 4.89416L94.422 14.8153C92.7338 18.5331 90.8073 22.6852 89.3222 26.453C87.9116 26.3598 85.8072 26.4137 84.2998 26.3604C84.0444 25.7065 83.7178 25.0269 83.4363 24.3736C80.3648 17.2459 77.4363 10.0315 74.1128 3.02008C73.7647 2.28578 73.1932 1.14438 72.9806 0.408092C74.7018 0.359802 76.8731 0.305664 78.5701 0.472561C80.0034 4.57853 82.2811 8.75096 83.9526 12.8017C84.9877 15.31 86.1624 17.7572 86.8148 20.3971C87.5755 17.8184 88.885 15.3335 89.9488 12.8624L92.9235 6.1157C93.8702 3.98624 94.4855 2.32673 95.7629 0.337524Z" fill="black"/>
<path d="M110.861 0.382831C112.62 0.312388 114.584 0.346491 116.333 0.40287C116.835 2.08877 118.027 4.16795 118.78 5.82585L125.527 20.4558C126.721 23.0678 127.34 23.3106 128.005 26.4085C126.411 26.5047 124.58 26.4255 122.99 26.3555C121.599 23.5825 120.751 21.4825 119.522 18.6889C117.919 15.0408 116.116 11.3118 114.652 7.60559C114.333 6.87888 114.144 6.1111 113.935 5.34582C112.344 7.18044 110.232 13.0665 109.094 15.5238C107.452 19.0707 106.516 23.0532 104.304 26.4381L99.4506 26.3984C99.7792 24.9963 100.465 23.6872 101.016 22.3474C102.689 18.2792 104.701 14.3155 106.502 10.299C107.861 7.27005 109.245 3.24659 110.861 0.382831Z" fill="black"/>
<path d="M168.953 0.394281C170.549 0.362171 172.66 0.290482 174.218 0.496335C174.926 1.84483 175.452 3.3601 176.146 4.72589C179.745 11.8091 182.749 19.2084 186.287 26.3134C184.566 26.4173 182.762 26.3854 181.036 26.3601C179.984 24.4302 179.229 22.5961 178.336 20.6039C176.371 16.2184 174.301 11.7811 172.548 7.31361C172.271 6.72555 172.118 6.01042 171.958 5.37369C170.392 7.72295 168.305 12.9472 167.125 15.7214C165.817 18.794 163.506 23.3077 162.444 26.4079C160.86 26.3261 159.089 26.4158 157.496 26.4865C157.749 24.8896 158.253 23.61 158.955 22.1762C162.451 15.0353 165.375 7.47279 168.953 0.394281Z" fill="black"/>
<path d="M23.4212 0.470075C26.8567 0.366651 30.1711 0.447175 33.605 0.453646C37.6378 0.429377 41.6709 0.43112 45.7038 0.458749L45.6857 4.70561L40.3881 4.70386C39.828 4.70287 37.6246 4.5519 37.3348 4.94568C37.3568 9.31102 37.6343 13.7069 37.5077 18.0892C37.4662 19.5239 37.5421 21.6643 37.3803 23.0509L37.249 26.5022C35.565 26.43 33.7753 26.425 32.0826 26.3917C32.0134 23.7358 32.0963 20.7294 32.107 18.0494C32.1054 13.6434 32.1303 9.23722 32.1817 4.83131C29.2674 4.73697 26.352 4.68395 23.4363 4.67225L23.4212 0.470075Z" fill="black"/>
<path d="M50.3646 22.076C54.3345 22.0342 58.3046 22.0124 62.2747 22.0106C64.832 22.0064 67.9544 21.9344 70.4634 22.1322C70.4659 23.5345 70.3829 25.0342 70.3283 26.4429C63.65 26.4916 56.9713 26.4813 50.2931 26.412C50.2761 25.5084 50.1856 22.8584 50.3646 22.076Z" fill="black"/>
<path d="M50.2152 0.480147C56.7177 0.428622 63.2206 0.430489 69.7232 0.485624C69.7195 1.92248 69.6792 3.35884 69.6024 4.79359C63.3568 4.62644 56.5776 4.74032 50.2931 4.73261C50.2895 3.31479 50.2635 1.89709 50.2152 0.480147Z" fill="black"/>
<path d="M57.8743 10.8737C61.4088 10.8307 64.9743 10.7269 68.4944 11.0303C68.4674 12.4232 68.373 13.8909 68.3051 15.2881C65.8067 15.3274 63.3081 15.3542 60.8094 15.3685L50.3373 15.3626C50.2832 13.9504 50.3038 12.4123 50.2962 10.9901C52.8216 10.917 55.348 10.8782 57.8743 10.8737Z" fill="black"/>
</svg>
