<svg width="115" height="144" viewBox="0 0 115 144" fill="none" xmlns="http://www.w3.org/2000/svg">
<path d="M63.2365 0L10.1235 53.113C-3.3745 66.611 -3.3745 88.495 10.1235 101.993L11.0735 102.943C17.6105 109.48 28.2095 109.48 34.7465 102.943L57.9525 79.737L57.0025 78.787C50.4655 72.25 39.8685 72.25 33.3315 78.786L63.2365 48.881C76.7345 35.383 76.7345 13.498 63.2365 0Z" fill="#FFB000"/>
<path d="M104.604 41.2048L103.654 40.2548C97.1167 33.7178 86.5177 33.7178 79.9807 40.2548L56.1387 64.0968L57.0887 65.0468C63.6257 71.5838 74.2237 71.5838 80.7607 65.0478L51.4907 94.3178C37.9927 107.816 37.9927 129.7 51.4907 143.198L104.604 90.0848C118.102 76.5878 118.102 54.7028 104.604 41.2048Z" fill="#48464C"/>
</svg>
